<svg width="113" height="26" viewBox="0 0 113 26" fill="none" xmlns="http://www.w3.org/2000/svg">
<path d="M85.3943 8.02167C84.1767 6.79916 82.492 6.04203 80.6298 6.04203C79.4681 6.04203 78.375 6.3368 77.4215 6.85528L76.7862 6.22925L73.9062 6.22925V19.6709H77.8411V12.9967L77.8359 12.7695H77.8411C77.8411 11.2314 79.0897 9.98449 80.6298 9.98449C82.1701 9.98449 83.4187 11.2314 83.4187 12.7695V19.6709L87.3535 19.6709V12.7694L87.3699 12.7695C87.3699 11.2314 88.6186 9.98449 90.1588 9.98449C91.6991 9.98449 92.9476 11.2314 92.9476 12.7695V19.6709L96.8824 19.6709V12.7629C96.8824 9.05102 93.8721 6.04203 90.1588 6.04203C88.2967 6.04203 86.6119 6.79916 85.3943 8.02167Z" fill="url(#paint0_linear_825_4225)"/>
<path d="M33.7279 6.22925L33.1238 6.83252V6.84009C32.2734 6.45146 31.3311 6.22925 30.3349 6.22925C26.6216 6.22925 23.6113 9.23824 23.6113 12.9501C23.6113 16.6619 26.6216 19.6709 30.3349 19.6709C31.3311 19.6709 32.2734 19.4486 33.1238 19.0601V19.6709L37.0586 19.6709L37.0586 6.22925L33.7279 6.22925ZM27.5462 12.9567C27.5462 11.4186 28.7948 10.1717 30.3349 10.1717C31.8752 10.1717 33.1238 11.4186 33.1238 12.9567C33.1238 14.4948 31.8752 15.7416 30.3349 15.7416C28.7948 15.7416 27.5462 14.4948 27.5462 12.9567Z" fill="url(#paint1_linear_825_4225)"/>
<path d="M66.748 19.6709H70.6828V6.32738H66.748V19.6709Z" fill="url(#paint2_linear_825_4225)"/>
<path d="M59.2958 0.292055L57.6178 1.96784V6.3264H55.6504V10.2557H57.6178L57.6178 19.6699L61.5525 19.6699L61.5525 10.2557L63.5198 10.2557V6.3264L61.5525 6.3264V0.292055L59.2958 0.292055Z" fill="url(#paint3_linear_825_4225)"/>
<path d="M68.4301 0.293659L66.752 1.96945V4.22266L70.6869 4.22266V0.293659L68.4301 0.293659Z" fill="url(#paint4_linear_825_4225)"/>
<path d="M0.0820313 16.8598C0.0820313 18.3977 1.33178 19.6445 2.87332 19.6445C4.41492 19.6445 5.66467 18.3977 5.66467 16.8598C5.66467 15.3219 4.41492 14.0751 2.87332 14.0751C1.33178 14.0751 0.0820313 15.3219 0.0820313 16.8598ZM1.71948 16.8598C1.71948 16.2219 2.23728 15.7048 2.87607 15.7048C3.51487 15.7048 4.03267 16.2219 4.03267 16.8598C4.03267 17.4977 3.51487 18.0148 2.87607 18.0148C2.23728 18.0148 1.71948 17.4977 1.71948 16.8598Z" fill="url(#paint5_linear_825_4225)"/>
<path d="M2.79324 7.17381C1.25164 7.17381 0.00195313 8.42055 0.00195313 9.95852C0.00195313 10.4397 0.124356 10.8924 0.33974 11.2873L0.0797182 11.5504L0.0797182 12.7432L5.66235 12.7432L5.66235 11.1135H2.89038L2.79599 11.1157V11.1135C2.1572 11.1135 1.63934 10.5964 1.63934 9.95852C1.63934 9.3206 2.1572 8.80346 2.79599 8.80346H5.66235L5.66235 7.17381L2.79324 7.17381Z" fill="url(#paint6_linear_825_4225)"/>
<path d="M7.63867 0.266113V1.9419L7.63867 19.644H11.5735L11.5735 13.6949L14.5266 13.6949V13.7078C14.66 13.7078 14.7922 13.7028 14.9236 13.6951C16.4356 13.6993 17.6658 14.985 17.7052 16.4862V18.9867H17.6936C17.6936 22.6986 20.7038 25.7076 24.4172 25.7076H24.807V25.7354L41.0072 25.7354H43.8533H45.744C49.4574 25.7354 52.4676 22.7264 52.4676 19.0145L52.4676 6.25942H49.0753L48.5328 6.80117V6.8702C47.6824 6.48168 46.7401 6.25942 45.744 6.25942C42.0306 6.25942 39.0203 9.2684 39.0203 12.9803C39.0203 16.692 42.0306 19.7011 45.744 19.7011C46.7373 19.7011 47.677 19.4802 48.5255 19.0938C48.486 20.5975 47.2593 21.806 45.744 21.806H43.8533H42.6853L24.807 21.806V21.7782H24.4172C22.9019 21.7782 21.6679 20.4904 21.6284 18.9867H21.64V16.4862C21.64 14.5303 20.8035 12.7701 19.4692 11.5419C20.5745 10.3442 21.2503 8.74476 21.2503 6.98688C21.2503 3.28374 18.2539 0.280018 14.5524 0.266113L7.63867 0.266113ZM11.5735 4.19556L14.5266 4.19556C16.0668 4.19556 17.3154 5.4423 17.3154 6.98032C17.3154 8.5184 16.0668 9.7653 14.5266 9.7653L11.5735 9.76547L11.5735 4.19556ZM42.9552 12.9869C42.9552 11.4488 44.2037 10.2019 45.744 10.2019C47.2842 10.2019 48.5328 11.4488 48.5328 12.9869C48.5328 14.5249 47.2842 15.7717 45.744 15.7717C44.2037 15.7717 42.9552 14.5249 42.9552 12.9869Z" fill="url(#paint7_linear_825_4225)"/>
<path d="M98.8496 12.9492C98.8496 16.6609 101.86 19.6699 105.573 19.6699C108.535 19.6699 111.043 17.7527 111.939 15.0944L107.351 15.0944C106.869 15.4959 106.251 15.7406 105.573 15.7406C104.335 15.7406 103.286 14.9337 102.922 13.8181L105.792 13.8181H106.93V13.8169L112.239 13.8169C112.276 13.5326 112.297 13.2434 112.297 12.9492C112.297 9.23727 109.287 6.22828 105.573 6.22828C101.86 6.22828 98.8496 9.23727 98.8496 12.9492ZM105.573 10.1707C106.557 10.1707 107.419 10.6803 107.916 11.4481L103.231 11.4481C103.727 10.6803 104.59 10.1707 105.573 10.1707Z" fill="url(#paint8_linear_825_4225)"/>
<path d="M2.8567 0.263658C1.32274 0.272629 0.0820313 1.51594 0.0820313 3.0483C0.0820313 4.58627 1.33172 5.83301 2.87332 5.83301C4.41492 5.83301 5.66467 4.58627 5.66467 3.0483C5.66467 1.82164 4.86837 0.782986 3.76422 0.411797L3.76422 2.31193C3.93104 2.51182 4.03267 2.76767 4.03267 3.0483C4.03267 3.5613 3.69752 3.99557 3.23419 4.14623L3.23419 2.95769L3.23419 2.48636H3.23374L3.23374 0.287544C3.12077 0.273021 3.00594 0.264387 2.88927 0.263658H2.8567ZM1.71942 3.0483C1.71942 2.64101 1.93104 2.28372 2.24997 2.07811L2.24997 4.01856C1.93104 3.81294 1.71942 3.4556 1.71942 3.0483Z" fill="url(#paint9_linear_825_4225)"/>
<defs>
<linearGradient id="paint0_linear_825_4225" x1="7.43705" y1="12.8565" x2="112.776" y2="12.8565" gradientUnits="userSpaceOnUse">
<stop stop-color="#8B73B2"/>
<stop offset="0.25" stop-color="#ED6965"/>
<stop offset="0.5" stop-color="#FDC541"/>
<stop offset="0.75" stop-color="#3EB7AD"/>
<stop offset="1" stop-color="#3FBEE6"/>
</linearGradient>
<linearGradient id="paint1_linear_825_4225" x1="7.43958" y1="12.9501" x2="112.779" y2="12.9501" gradientUnits="userSpaceOnUse">
<stop stop-color="#8B73B2"/>
<stop offset="0.25" stop-color="#ED6965"/>
<stop offset="0.5" stop-color="#FDC541"/>
<stop offset="0.75" stop-color="#3EB7AD"/>
<stop offset="1" stop-color="#3FBEE6"/>
</linearGradient>
<linearGradient id="paint2_linear_825_4225" x1="7.43875" y1="12.9991" x2="112.778" y2="12.9991" gradientUnits="userSpaceOnUse">
<stop stop-color="#8B73B2"/>
<stop offset="0.25" stop-color="#ED6965"/>
<stop offset="0.5" stop-color="#FDC541"/>
<stop offset="0.75" stop-color="#3EB7AD"/>
<stop offset="1" stop-color="#3FBEE6"/>
</linearGradient>
<linearGradient id="paint3_linear_825_4225" x1="7.43555" y1="9.98098" x2="112.775" y2="9.98098" gradientUnits="userSpaceOnUse">
<stop stop-color="#8B73B2"/>
<stop offset="0.25" stop-color="#ED6965"/>
<stop offset="0.5" stop-color="#FDC541"/>
<stop offset="0.75" stop-color="#3EB7AD"/>
<stop offset="1" stop-color="#3FBEE6"/>
</linearGradient>
<linearGradient id="paint4_linear_825_4225" x1="7.4427" y1="2.25818" x2="112.782" y2="2.25818" gradientUnits="userSpaceOnUse">
<stop stop-color="#8B73B2"/>
<stop offset="0.25" stop-color="#ED6965"/>
<stop offset="0.5" stop-color="#FDC541"/>
<stop offset="0.75" stop-color="#3EB7AD"/>
<stop offset="1" stop-color="#3FBEE6"/>
</linearGradient>
<linearGradient id="paint5_linear_825_4225" x1="7.44262" y1="16.8598" x2="112.782" y2="16.8598" gradientUnits="userSpaceOnUse">
<stop stop-color="#8B73B2"/>
<stop offset="0.25" stop-color="#ED6965"/>
<stop offset="0.5" stop-color="#FDC541"/>
<stop offset="0.75" stop-color="#3EB7AD"/>
<stop offset="1" stop-color="#3FBEE6"/>
</linearGradient>
<linearGradient id="paint6_linear_825_4225" x1="7.4403" y1="9.9585" x2="112.779" y2="9.9585" gradientUnits="userSpaceOnUse">
<stop stop-color="#8B73B2"/>
<stop offset="0.25" stop-color="#ED6965"/>
<stop offset="0.5" stop-color="#FDC541"/>
<stop offset="0.75" stop-color="#3EB7AD"/>
<stop offset="1" stop-color="#3FBEE6"/>
</linearGradient>
<linearGradient id="paint7_linear_825_4225" x1="7.43617" y1="13.0007" x2="112.775" y2="13.0007" gradientUnits="userSpaceOnUse">
<stop stop-color="#8B73B2"/>
<stop offset="0.25" stop-color="#ED6965"/>
<stop offset="0.5" stop-color="#FDC541"/>
<stop offset="0.75" stop-color="#3EB7AD"/>
<stop offset="1" stop-color="#3FBEE6"/>
</linearGradient>
<linearGradient id="paint8_linear_825_4225" x1="7.43914" y1="12.9491" x2="112.778" y2="12.9491" gradientUnits="userSpaceOnUse">
<stop stop-color="#8B73B2"/>
<stop offset="0.25" stop-color="#ED6965"/>
<stop offset="0.5" stop-color="#FDC541"/>
<stop offset="0.75" stop-color="#3EB7AD"/>
<stop offset="1" stop-color="#3FBEE6"/>
</linearGradient>
<linearGradient id="paint9_linear_825_4225" x1="7.44262" y1="3.04832" x2="112.782" y2="3.04832" gradientUnits="userSpaceOnUse">
<stop stop-color="#8B73B2"/>
<stop offset="0.25" stop-color="#ED6965"/>
<stop offset="0.5" stop-color="#FDC541"/>
<stop offset="0.75" stop-color="#3EB7AD"/>
<stop offset="1" stop-color="#3FBEE6"/>
</linearGradient>
</defs>
</svg>
