<svg width="226" height="76" viewBox="0 0 226 76" fill="none" xmlns="http://www.w3.org/2000/svg">
<rect width="226" height="76" fill="white"/>
<path fill-rule="evenodd" clip-rule="evenodd" d="M35.8884 32.0749C35.8884 33.8926 34.7473 35.4341 33.167 35.9723V38.2273H33.6796C34.8583 38.2273 35.7758 39.2883 35.6469 40.5024L33.167 63.8624H30.6931L28.2132 40.5024C28.0843 39.2883 29.0018 38.2273 30.1805 38.2273H30.6931V35.9723C29.1128 35.4341 27.9717 33.8926 27.9717 32.0749C27.9717 29.8097 29.7438 27.9733 31.93 27.9733C34.1163 27.9733 35.8884 29.8097 35.8884 32.0749Z" fill="#7A4BFB"/>
<path fill-rule="evenodd" clip-rule="evenodd" d="M38.2631 44.5366C42.8896 42.2959 46.078 37.5728 46.078 32.1086C46.078 24.4795 39.8624 18.2948 32.1951 18.2948C24.5278 18.2948 18.3122 24.4795 18.3122 32.1086C18.3122 37.5728 21.5005 42.2959 26.1271 44.5366L26.6939 48.5565C19.7708 46.2651 14.7783 39.767 14.7783 32.1086C14.7783 22.5375 22.5761 14.7785 32.1951 14.7785C41.8141 14.7785 49.6119 22.5375 49.6119 32.1086C49.6119 39.767 44.6194 46.2651 37.6962 48.5565L38.2631 44.5366Z" fill="#7A4BFB"/>
<path fill-rule="evenodd" clip-rule="evenodd" d="M36.9049 52.7098C46.1012 50.457 52.9292 42.0995 52.9292 32.1341C52.9292 20.4404 43.5273 10.9607 31.9295 10.9607C20.3317 10.9607 10.9298 20.4404 10.9298 32.1341C10.9298 42.0994 17.7577 50.4568 26.9538 52.7097L27.4775 56.4729C16.0489 54.3613 7.3877 44.2675 7.3877 32.1341C7.3877 18.4679 18.3754 7.38928 31.9295 7.38928C45.4836 7.38928 56.4713 18.4679 56.4713 32.1341C56.4713 44.2676 47.81 54.3614 36.3813 56.4729L36.9049 52.7098Z" fill="#7A4BFB"/>
<path fill-rule="evenodd" clip-rule="evenodd" d="M35.9055 59.6861C49.6834 57.7638 60.2853 45.9928 60.2853 31.759C60.2853 16.1835 47.5905 3.55701 31.9308 3.55701C16.271 3.55701 3.57624 16.1835 3.57624 31.759C3.57624 45.9928 14.178 57.7638 27.956 59.6861L28.4706 63.3337C12.4632 61.6181 0 48.1362 0 31.759C0 14.219 14.2959 0 31.9308 0C49.5656 0 63.8615 14.219 63.8615 31.759C63.8615 48.1362 51.3983 61.6181 35.3909 63.3337L35.9055 59.6861Z" fill="#192233"/>
<path d="M83.318 47.627C84.576 49.5283 86.1726 50.942 88.108 51.8683C90.0918 52.7458 92.1239 53.1846 94.2044 53.1846C95.3656 53.1846 96.551 53.014 97.7606 52.6727C98.9702 52.2827 100.059 51.7221 101.027 50.9908C102.043 50.2595 102.865 49.3576 103.494 48.2851C104.123 47.2126 104.438 45.9695 104.438 44.5557C104.438 42.5569 103.809 41.0456 102.551 40.0219C101.293 38.9493 99.7202 38.0718 97.8332 37.3893C95.9946 36.658 93.9625 35.9755 91.7368 35.3418C89.5595 34.6593 87.5274 33.733 85.6404 32.563C83.8018 31.3929 82.2535 29.8329 80.9956 27.8829C79.7376 25.8841 79.1086 23.2028 79.1086 19.839C79.1086 18.3277 79.4231 16.7189 80.0521 15.0127C80.7294 13.3064 81.7697 11.7464 83.1728 10.3326C84.576 8.9188 86.3662 7.74878 88.5435 6.82251C90.7691 5.8475 93.4303 5.35999 96.5268 5.35999C99.3331 5.35999 102.018 5.75 104.583 6.53001C107.147 7.31002 109.397 8.89443 111.332 11.2832L105.671 16.4752C104.801 15.1102 103.567 14.0133 101.97 13.1845C100.373 12.3557 98.559 11.9414 96.5268 11.9414C94.5915 11.9414 92.9706 12.2095 91.6642 12.7457C90.4063 13.2333 89.3902 13.8914 88.616 14.7202C87.8419 15.5002 87.2855 16.3533 86.9468 17.2796C86.6565 18.2058 86.5113 19.059 86.5113 19.839C86.5113 22.0328 87.1403 23.7147 88.3983 24.8847C89.6563 26.0547 91.2046 27.0054 93.0432 27.7366C94.9302 28.4679 96.9623 29.126 99.1396 29.711C101.365 30.2961 103.397 31.1248 105.236 32.1973C107.123 33.2211 108.695 34.6349 109.953 36.4387C111.211 38.1937 111.84 40.6312 111.84 43.7513C111.84 46.2376 111.357 48.4801 110.389 50.4789C109.47 52.4777 108.212 54.1596 106.615 55.5246C105.018 56.8897 103.131 57.9378 100.954 58.6691C98.7767 59.4003 96.4543 59.766 93.9867 59.766C90.6966 59.766 87.5758 59.1809 84.6244 58.0109C81.6729 56.8409 79.3263 55.0371 77.5845 52.5996L83.318 47.627Z" fill="#192233"/>
<path d="M118.783 23.7878H125.315V58.4497H118.783V23.7878ZM117.259 11.3563C117.259 10.0401 117.719 8.9188 118.638 7.99253C119.606 7.01752 120.743 6.53001 122.049 6.53001C123.356 6.53001 124.468 7.01752 125.388 7.99253C126.355 8.9188 126.839 10.0401 126.839 11.3563C126.839 12.6726 126.355 13.8183 125.388 14.7933C124.468 15.7195 123.356 16.1827 122.049 16.1827C120.743 16.1827 119.606 15.7195 118.638 14.7933C117.719 13.8183 117.259 12.6726 117.259 11.3563Z" fill="#192233"/>
<path d="M168.007 58.1572C168.007 60.7897 167.547 63.1785 166.628 65.3236C165.757 67.5173 164.499 69.3942 162.854 70.9543C161.209 72.5631 159.225 73.8062 156.903 74.6837C154.58 75.5612 152.016 76 149.21 76C145.92 76 142.896 75.5369 140.138 74.6106C137.428 73.6843 134.84 72.0755 132.372 69.7842L136.799 64.2267C138.493 66.0792 140.331 67.4686 142.315 68.3949C144.299 69.3699 146.549 69.8574 149.065 69.8574C151.484 69.8574 153.492 69.4917 155.088 68.7605C156.685 68.078 157.943 67.1761 158.862 66.0548C159.83 64.9335 160.507 63.6416 160.894 62.1791C161.282 60.7653 161.475 59.3272 161.475 57.8647V52.7458H161.257C159.999 54.8421 158.282 56.4021 156.104 57.4259C153.976 58.4009 151.726 58.8884 149.355 58.8884C146.839 58.8884 144.492 58.4497 142.315 57.5722C140.186 56.6459 138.348 55.4027 136.799 53.8427C135.251 52.2339 134.041 50.357 133.17 48.212C132.299 46.0182 131.864 43.6538 131.864 41.1188C131.864 38.5837 132.275 36.2193 133.098 34.0255C133.92 31.783 135.082 29.8329 136.581 28.1754C138.13 26.5179 139.968 25.226 142.097 24.2997C144.275 23.3734 146.694 22.9103 149.355 22.9103C151.677 22.9103 153.927 23.4222 156.104 24.446C158.33 25.4697 160.072 26.9079 161.33 28.7604H161.475V23.7878H168.007V58.1572ZM150.153 29.0529C148.411 29.0529 146.839 29.3698 145.436 30.0035C144.033 30.5886 142.847 31.4173 141.88 32.4898C140.912 33.5136 140.162 34.7811 139.63 36.2924C139.097 37.7549 138.831 39.3637 138.831 41.1188C138.831 44.6288 139.847 47.4564 141.88 49.6014C143.912 51.6977 146.67 52.7458 150.153 52.7458C153.637 52.7458 156.395 51.6977 158.427 49.6014C160.459 47.4564 161.475 44.6288 161.475 41.1188C161.475 39.3637 161.209 37.7549 160.677 36.2924C160.145 34.7811 159.395 33.5136 158.427 32.4898C157.459 31.4173 156.274 30.5886 154.871 30.0035C153.468 29.3698 151.895 29.0529 150.153 29.0529Z" fill="#192233"/>
<path d="M176.232 3.1662H182.764V58.4497H176.232V3.1662Z" fill="#192233"/>
<path d="M196.28 41.1188C196.28 42.8738 196.546 44.5069 197.078 46.0182C197.61 47.4807 198.36 48.7483 199.328 49.8208C200.296 50.8446 201.481 51.6733 202.884 52.3071C204.287 52.8921 205.86 53.1846 207.602 53.1846C209.344 53.1846 210.916 52.8921 212.319 52.3071C213.722 51.6733 214.908 50.8446 215.875 49.8208C216.843 48.7483 217.593 47.4807 218.125 46.0182C218.658 44.5069 218.924 42.8738 218.924 41.1188C218.924 39.3637 218.658 37.7549 218.125 36.2924C217.593 34.7811 216.843 33.5136 215.875 32.4898C214.908 31.4173 213.722 30.5886 212.319 30.0035C210.916 29.3698 209.344 29.0529 207.602 29.0529C205.86 29.0529 204.287 29.3698 202.884 30.0035C201.481 30.5886 200.296 31.4173 199.328 32.4898C198.36 33.5136 197.61 34.7811 197.078 36.2924C196.546 37.7549 196.28 39.3637 196.28 41.1188ZM189.313 41.1188C189.313 38.5837 189.772 36.2193 190.692 34.0255C191.659 31.8317 192.966 29.906 194.611 28.2485C196.256 26.591 198.191 25.2991 200.417 24.3728C202.642 23.3978 205.037 22.9103 207.602 22.9103C210.166 22.9103 212.561 23.3978 214.787 24.3728C217.012 25.2991 218.948 26.591 220.593 28.2485C222.238 29.906 223.52 31.8317 224.439 34.0255C225.407 36.2193 225.891 38.5837 225.891 41.1188C225.891 43.6538 225.407 46.0426 224.439 48.2851C223.52 50.4789 222.238 52.4046 220.593 54.0621C218.948 55.6709 217.012 56.9628 214.787 57.9378C212.561 58.8641 210.166 59.3272 207.602 59.3272C205.037 59.3272 202.642 58.8641 200.417 57.9378C198.191 56.9628 196.256 55.6709 194.611 54.0621C192.966 52.4046 191.659 50.4789 190.692 48.2851C189.772 46.0426 189.313 43.6538 189.313 41.1188Z" fill="#192233"/>
</svg>
